<?xml version="1.0" standalone="no"?>
<svg xmlns:xlink="http://www.w3.org/1999/xlink" id="wave" style="transform:rotate(180deg); transition: 0.3s" viewBox="0 0 1440 200" version="1.1" xmlns="http://www.w3.org/2000/svg"><defs><linearGradient id="sw-gradient-0" x1="0" x2="0" y1="1" y2="0"><stop stop-color="rgba(86, 137, 245, 1)" offset="0%"/><stop stop-color="rgba(86, 137, 245, 1)" offset="100%"/></linearGradient></defs><path style="transform:translate(0, 0px); opacity:1" fill="url(#sw-gradient-0)" d="M0,60L40,66.7C80,73,160,87,240,93.3C320,100,400,100,480,93.3C560,87,640,73,720,73.3C800,73,880,87,960,86.7C1040,87,1120,73,1200,83.3C1280,93,1360,127,1440,130C1520,133,1600,107,1680,80C1760,53,1840,27,1920,33.3C2000,40,2080,80,2160,90C2240,100,2320,80,2400,73.3C2480,67,2560,73,2640,90C2720,107,2800,133,2880,140C2960,147,3040,133,3120,126.7C3200,120,3280,120,3360,120C3440,120,3520,120,3600,120C3680,120,3760,120,3840,120C3920,120,4000,120,4080,100C4160,80,4240,40,4320,26.7C4400,13,4480,27,4560,53.3C4640,80,4720,120,4800,116.7C4880,113,4960,67,5040,56.7C5120,47,5200,73,5280,76.7C5360,80,5440,60,5520,63.3C5600,67,5680,93,5720,106.7L5760,120L5760,200L5720,200C5680,200,5600,200,5520,200C5440,200,5360,200,5280,200C5200,200,5120,200,5040,200C4960,200,4880,200,4800,200C4720,200,4640,200,4560,200C4480,200,4400,200,4320,200C4240,200,4160,200,4080,200C4000,200,3920,200,3840,200C3760,200,3680,200,3600,200C3520,200,3440,200,3360,200C3280,200,3200,200,3120,200C3040,200,2960,200,2880,200C2800,200,2720,200,2640,200C2560,200,2480,200,2400,200C2320,200,2240,200,2160,200C2080,200,2000,200,1920,200C1840,200,1760,200,1680,200C1600,200,1520,200,1440,200C1360,200,1280,200,1200,200C1120,200,1040,200,960,200C880,200,800,200,720,200C640,200,560,200,480,200C400,200,320,200,240,200C160,200,80,200,40,200L0,200Z"/></svg>