<?xml version="1.0" standalone="no"?>
<svg xmlns:xlink="http://www.w3.org/1999/xlink" id="wave" style="transform:rotate(180deg); transition: 0.3s" viewBox="0 0 1440 100" version="1.1" xmlns="http://www.w3.org/2000/svg"><defs><linearGradient id="sw-gradient-0" x1="0" x2="0" y1="1" y2="0"><stop stop-color="rgba(86, 137, 245, 1)" offset="0%"/><stop stop-color="rgba(86, 137, 245, 1)" offset="100%"/></linearGradient></defs><path style="transform:translate(0, 0px); opacity:1" fill="url(#sw-gradient-0)" d="M0,60L24,60C48,60,96,60,144,63.3C192,67,240,73,288,73.3C336,73,384,67,432,55C480,43,528,27,576,28.3C624,30,672,50,720,53.3C768,57,816,43,864,36.7C912,30,960,30,1008,28.3C1056,27,1104,23,1152,25C1200,27,1248,33,1296,40C1344,47,1392,53,1440,60C1488,67,1536,73,1584,73.3C1632,73,1680,67,1728,58.3C1776,50,1824,40,1872,35C1920,30,1968,30,2016,30C2064,30,2112,30,2160,25C2208,20,2256,10,2304,8.3C2352,7,2400,13,2448,16.7C2496,20,2544,20,2592,25C2640,30,2688,40,2736,45C2784,50,2832,50,2880,53.3C2928,57,2976,63,3024,56.7C3072,50,3120,30,3168,23.3C3216,17,3264,23,3312,26.7C3360,30,3408,30,3432,30L3456,30L3456,100L3432,100C3408,100,3360,100,3312,100C3264,100,3216,100,3168,100C3120,100,3072,100,3024,100C2976,100,2928,100,2880,100C2832,100,2784,100,2736,100C2688,100,2640,100,2592,100C2544,100,2496,100,2448,100C2400,100,2352,100,2304,100C2256,100,2208,100,2160,100C2112,100,2064,100,2016,100C1968,100,1920,100,1872,100C1824,100,1776,100,1728,100C1680,100,1632,100,1584,100C1536,100,1488,100,1440,100C1392,100,1344,100,1296,100C1248,100,1200,100,1152,100C1104,100,1056,100,1008,100C960,100,912,100,864,100C816,100,768,100,720,100C672,100,624,100,576,100C528,100,480,100,432,100C384,100,336,100,288,100C240,100,192,100,144,100C96,100,48,100,24,100L0,100Z"/></svg>