<?xml version="1.0" standalone="no"?>
<svg xmlns:xlink="http://www.w3.org/1999/xlink" id="wave" style="transform:rotate(180deg); transition: 0.3s" viewBox="0 0 1440 330" version="1.1" xmlns="http://www.w3.org/2000/svg"><defs><linearGradient id="sw-gradient-0" x1="0" x2="0" y1="1" y2="0"><stop stop-color="rgba(37, 97, 223, 1)" offset="0%"/><stop stop-color="rgba(37, 97, 223, 1)" offset="100%"/></linearGradient></defs><path style="transform:translate(0, 0px); opacity:1" fill="url(#sw-gradient-0)" d="M0,99L40,110C80,121,160,143,240,154C320,165,400,165,480,154C560,143,640,121,720,121C800,121,880,143,960,143C1040,143,1120,121,1200,137.5C1280,154,1360,209,1440,214.5C1520,220,1600,176,1680,132C1760,88,1840,44,1920,55C2000,66,2080,132,2160,148.5C2240,165,2320,132,2400,121C2480,110,2560,121,2640,148.5C2720,176,2800,220,2880,231C2960,242,3040,220,3120,209C3200,198,3280,198,3360,198C3440,198,3520,198,3600,198C3680,198,3760,198,3840,198C3920,198,4000,198,4080,165C4160,132,4240,66,4320,44C4400,22,4480,44,4560,88C4640,132,4720,198,4800,192.5C4880,187,4960,110,5040,93.5C5120,77,5200,121,5280,126.5C5360,132,5440,99,5520,104.5C5600,110,5680,154,5720,176L5760,198L5760,330L5720,330C5680,330,5600,330,5520,330C5440,330,5360,330,5280,330C5200,330,5120,330,5040,330C4960,330,4880,330,4800,330C4720,330,4640,330,4560,330C4480,330,4400,330,4320,330C4240,330,4160,330,4080,330C4000,330,3920,330,3840,330C3760,330,3680,330,3600,330C3520,330,3440,330,3360,330C3280,330,3200,330,3120,330C3040,330,2960,330,2880,330C2800,330,2720,330,2640,330C2560,330,2480,330,2400,330C2320,330,2240,330,2160,330C2080,330,2000,330,1920,330C1840,330,1760,330,1680,330C1600,330,1520,330,1440,330C1360,330,1280,330,1200,330C1120,330,1040,330,960,330C880,330,800,330,720,330C640,330,560,330,480,330C400,330,320,330,240,330C160,330,80,330,40,330L0,330Z"/></svg>